<svg width="99" height="94" viewBox="0 0 99 94" fill="none" xmlns="http://www.w3.org/2000/svg">
<path d="M98.2689 36.0577C97.9615 35.1676 97.4026 34.3858 96.6597 33.807C95.9168 33.2283 95.022 32.8775 94.0837 32.7972L66.3938 28.7581L53.9844 3.59871C53.5859 2.77594 52.9638 2.08205 52.1892 1.59654C51.4145 1.11102 50.5188 0.853516 49.6047 0.853516C48.6905 0.853516 47.7948 1.11102 47.0201 1.59654C46.2455 2.08205 45.6234 2.77594 45.2249 3.59871L32.8155 28.7094L5.12556 32.7972C4.22489 32.9253 3.37814 33.3032 2.6814 33.8881C1.98465 34.473 1.46581 35.2415 1.18376 36.1064C0.925569 36.9516 0.9024 37.8511 1.11673 38.7084C1.33107 39.5658 1.77482 40.3486 2.40036 40.9728L22.4987 60.4385L17.6323 88.0798C17.4585 88.9921 17.5495 89.9351 17.8944 90.7974C18.2393 91.6598 18.8238 92.4054 19.5788 92.9462C20.3147 93.4723 21.1827 93.7828 22.0853 93.843C22.9879 93.9032 23.8894 93.7106 24.6886 93.2869L49.6047 80.2935L74.4234 93.3355C75.1064 93.7208 75.8778 93.9221 76.662 93.9195C77.6928 93.9232 78.6982 93.5994 79.5331 92.9949C80.2881 92.454 80.8726 91.7084 81.2175 90.8461C81.5625 89.9838 81.6534 89.0408 81.4797 88.1285L76.6133 60.4872L96.7116 41.0215C97.4142 40.4262 97.9335 39.6438 98.2092 38.7652C98.4848 37.8865 98.5055 36.9477 98.2689 36.0577ZM68.3404 55.5234C67.7697 56.0754 67.3427 56.7587 67.0967 57.5137C66.8507 58.2686 66.7932 59.0723 66.9291 59.8545L70.4329 80.2448L52.1352 70.512C51.4311 70.1371 50.6457 69.941 49.848 69.941C49.0503 69.941 48.2648 70.1371 47.5608 70.512L29.263 80.2448L32.7668 59.8545C32.9028 59.0723 32.8452 58.2686 32.5993 57.5137C32.3533 56.7587 31.9263 56.0754 31.3556 55.5234L16.7563 40.9242L37.2439 37.9556C38.0323 37.846 38.7817 37.5446 39.4265 37.078C40.0713 36.6114 40.5918 35.9937 40.9424 35.2791L49.6047 16.738L58.7535 35.3278C59.1041 36.0424 59.6246 36.66 60.2694 37.1267C60.9142 37.5933 61.6637 37.8947 62.452 38.0043L82.9396 40.9728L68.3404 55.5234Z" fill="#615E5E"/>
</svg>
