<svg width="53" height="50" viewBox="0 0 53 50" fill="none" xmlns="http://www.w3.org/2000/svg">
<path d="M52.2734 18.9136C52.1082 18.4354 51.8079 18.0153 51.4088 17.7044C51.0097 17.3935 50.529 17.205 50.0249 17.1619L35.1484 14.9918L28.4814 1.47487C28.2673 1.03283 27.933 0.660036 27.5169 0.399191C27.1007 0.138346 26.6195 0 26.1283 0C25.6372 0 25.156 0.138346 24.7398 0.399191C24.3237 0.660036 23.9894 1.03283 23.7753 1.47487L17.1083 14.9657L2.23182 17.1619C1.74793 17.2306 1.29301 17.4337 0.918683 17.7479C0.544355 18.0622 0.265606 18.4751 0.11407 18.9397C-0.0246423 19.3938 -0.0370901 19.8771 0.0780625 20.3377C0.193215 20.7983 0.431621 21.2189 0.767695 21.5542L11.5656 32.0122L8.95108 46.8626C8.85774 47.3527 8.90662 47.8594 9.09193 48.3227C9.27724 48.7859 9.59125 49.1865 9.99688 49.4771C10.3922 49.7597 10.8586 49.9266 11.3435 49.9589C11.8284 49.9912 12.3127 49.8878 12.7421 49.6601L26.1283 42.6794L39.4623 49.6862C39.8292 49.8933 40.2437 50.0014 40.665 50C41.2188 50.002 41.7589 49.828 42.2075 49.5032C42.6132 49.2127 42.9272 48.8121 43.1125 48.3488C43.2978 47.8855 43.3467 47.3789 43.2533 46.8887L40.6388 32.0384L51.4367 21.5804C51.8142 21.2606 52.0932 20.8402 52.2413 20.3682C52.3894 19.8961 52.4005 19.3917 52.2734 18.9136ZM36.1942 29.3716C35.8876 29.6682 35.6582 30.0352 35.526 30.4408C35.3938 30.8464 35.3629 31.2782 35.436 31.6985L37.3184 42.6532L27.4879 37.4242C27.1096 37.2228 26.6876 37.1175 26.2591 37.1175C25.8305 37.1175 25.4085 37.2228 25.0303 37.4242L15.1997 42.6532L17.0822 31.6985C17.1552 31.2782 17.1243 30.8464 16.9921 30.4408C16.86 30.0352 16.6306 29.6682 16.324 29.3716L8.48047 21.5281L19.4875 19.9332C19.9111 19.8743 20.3137 19.7124 20.6601 19.4617C21.0065 19.211 21.2862 18.8792 21.4745 18.4953L26.1283 8.53402L31.0436 18.5214C31.232 18.9053 31.5116 19.2372 31.858 19.4879C32.2045 19.7386 32.6071 19.9005 33.0306 19.9594L44.0377 21.5542L36.1942 29.3716Z" fill="#231F20"/>
<path d="M36.1942 29.3716C35.8876 29.6682 35.6582 30.0352 35.526 30.4408C35.3938 30.8464 35.3629 31.2782 35.436 31.6985L37.3184 42.6532L27.4879 37.4242C27.1096 37.2228 26.6876 37.1175 26.2591 37.1175C25.8305 37.1175 25.4085 37.2228 25.0303 37.4242L15.1997 42.6532L17.0822 31.6985C17.1552 31.2782 17.1243 30.8464 16.9921 30.4408C16.86 30.0352 16.6306 29.6682 16.324 29.3716L8.48047 21.5281L19.4875 19.9332C19.9111 19.8743 20.3137 19.7124 20.6601 19.4617C21.0065 19.211 21.2862 18.8792 21.4745 18.4953L26.1283 8.53402L31.0436 18.5214C31.232 18.9053 31.5116 19.2372 31.858 19.4879C32.2045 19.7386 32.6071 19.9005 33.0306 19.9594L44.0377 21.5542L36.1942 29.3716Z" fill="#231F20"/>
</svg>
