<svg width="65" height="65" viewBox="0 0 65 65" fill="none" xmlns="http://www.w3.org/2000/svg">
<path d="M24.0866 7.13781C24.2237 6.90894 24.3144 6.65531 24.3534 6.39139C24.3925 6.12747 24.3793 5.85844 24.3144 5.59966C24.2495 5.34087 24.1343 5.0974 23.9753 4.88315C23.8163 4.66889 23.6167 4.48805 23.3878 4.35094C23.1589 4.21383 22.9053 4.12314 22.6414 4.08406C22.3775 4.04497 22.1084 4.05825 21.8497 4.12313C21.5909 4.18802 21.3474 4.30324 21.1331 4.46222C20.9189 4.62119 20.738 4.82082 20.6009 5.04969L9.00656 24.375H2.03125C1.49253 24.375 0.975873 24.589 0.594939 24.9699C0.214006 25.3509 0 25.8675 0 26.4062L0 30.4687C0 31.0075 0.214006 31.5241 0.594939 31.9051C0.975873 32.286 1.49253 32.5 2.03125 32.5H4.56219L12.0534 58.7275C12.2357 59.3654 12.6211 59.9264 13.1512 60.3253C13.6814 60.7242 14.3272 60.9391 14.9906 60.9375H50.0175C50.6802 60.9382 51.3251 60.7229 51.8544 60.3241C52.3838 59.9253 52.7686 59.3647 52.9506 58.7275L60.4378 32.5H62.9688C63.5075 32.5 64.0241 32.286 64.4051 31.9051C64.786 31.5241 65 31.0075 65 30.4687V26.4062C65 25.8675 64.786 25.3509 64.4051 24.9699C64.0241 24.589 63.5075 24.375 62.9688 24.375H55.9934L44.4031 5.04969C44.266 4.82082 44.0852 4.62119 43.8709 4.46222C43.6567 4.30324 43.4132 4.18802 43.1544 4.12313C42.8956 4.05825 42.6266 4.04497 42.3627 4.08406C42.0988 4.12314 41.8451 4.21383 41.6163 4.35094C41.3874 4.48805 41.1878 4.66889 41.0288 4.88315C40.8698 5.0974 40.7546 5.34087 40.6897 5.59966C40.6248 5.85844 40.6115 6.12747 40.6506 6.39139C40.6897 6.65531 40.7804 6.90894 40.9175 7.13781L51.2566 24.375H13.7434L24.0866 7.13781ZM16.25 40.625C16.25 39.5476 16.678 38.5142 17.4399 37.7524C18.2017 36.9905 19.2351 36.5625 20.3125 36.5625C21.3899 36.5625 22.4233 36.9905 23.1851 37.7524C23.947 38.5142 24.375 39.5476 24.375 40.625V48.75C24.375 49.8274 23.947 50.8608 23.1851 51.6226C22.4233 52.3845 21.3899 52.8125 20.3125 52.8125C19.2351 52.8125 18.2017 52.3845 17.4399 51.6226C16.678 50.8608 16.25 49.8274 16.25 48.75V40.625ZM28.4375 40.625C28.4375 39.5476 28.8655 38.5142 29.6274 37.7524C30.3892 36.9905 31.4226 36.5625 32.5 36.5625C33.5774 36.5625 34.6108 36.9905 35.3726 37.7524C36.1345 38.5142 36.5625 39.5476 36.5625 40.625V48.75C36.5625 49.8274 36.1345 50.8608 35.3726 51.6226C34.6108 52.3845 33.5774 52.8125 32.5 52.8125C31.4226 52.8125 30.3892 52.3845 29.6274 51.6226C28.8655 50.8608 28.4375 49.8274 28.4375 48.75V40.625ZM44.6875 36.5625C45.7649 36.5625 46.7983 36.9905 47.5601 37.7524C48.322 38.5142 48.75 39.5476 48.75 40.625V48.75C48.75 49.8274 48.322 50.8608 47.5601 51.6226C46.7983 52.3845 45.7649 52.8125 44.6875 52.8125C43.6101 52.8125 42.5767 52.3845 41.8149 51.6226C41.053 50.8608 40.625 49.8274 40.625 48.75V40.625C40.625 39.5476 41.053 38.5142 41.8149 37.7524C42.5767 36.9905 43.6101 36.5625 44.6875 36.5625Z" fill="white"/>
</svg>
