<svg width="50" height="50" viewBox="0 0 50 50" fill="none" xmlns="http://www.w3.org/2000/svg">
<path d="M47.4609 18.7598C47.2234 18.0319 46.7773 17.3899 46.1779 16.9135C45.5786 16.437 44.8525 16.1472 44.0898 16.0801L32.957 15.1172L28.6015 4.73831C28.3019 4.0325 27.8012 3.43047 27.1618 3.00727C26.5224 2.58406 25.7726 2.3584 25.0058 2.3584C24.239 2.3584 23.4892 2.58406 22.8498 3.00727C22.2104 3.43047 21.7097 4.0325 21.4101 4.73831L17.0488 15.1172L5.91594 16.0801C5.14912 16.1436 4.41813 16.4321 3.81469 16.9095C3.21125 17.3869 2.76224 18.0319 2.524 18.7635C2.28575 19.4952 2.26889 20.2809 2.47552 21.022C2.68215 21.7632 3.10307 22.4269 3.68547 22.9297L12.1464 30.3125L9.60735 41.2969C9.43322 42.0449 9.48343 42.8276 9.75171 43.5472C10.02 44.2668 10.4944 44.8913 11.1157 45.3427C11.737 45.7942 12.4776 46.0524 13.2448 46.0853C14.0121 46.1181 14.772 45.9241 15.4296 45.5274L24.9999 39.7149L34.5702 45.5274C35.2278 45.9234 35.9875 46.117 36.7544 46.0838C37.5213 46.0507 38.2614 45.7923 38.8824 45.341C39.5033 44.8897 39.9775 44.2654 40.2457 43.5462C40.514 42.8269 40.5643 42.0446 40.3906 41.2969L37.8515 30.3125L46.3124 22.9297C46.8933 22.425 47.3121 21.7601 47.5164 21.0182C47.7208 20.2764 47.7014 19.4907 47.4609 18.7598ZM34.4238 27.084C33.8881 27.55 33.4896 28.1532 33.2711 28.8287C33.0526 29.5043 33.0223 30.2266 33.1835 30.918L35.4081 40.5508L27.0214 35.4571C26.4124 35.0862 25.713 34.89 24.9999 34.89C24.2868 34.89 23.5875 35.0862 22.9784 35.4571L14.5917 40.5508L16.8163 30.918C16.9775 30.2266 16.9473 29.5043 16.7287 28.8287C16.5102 28.1532 16.1117 27.55 15.5761 27.084L8.13665 20.5938L17.9296 19.7461C18.6388 19.6854 19.3177 19.4313 19.8924 19.0115C20.4672 18.5917 20.9158 18.0223 21.1894 17.3653L24.9999 8.28518L28.8105 17.3653C29.0841 18.0223 29.5327 18.5917 30.1074 19.0115C30.6822 19.4313 31.3611 19.6854 32.0702 19.7461L41.8632 20.5938L34.4238 27.084Z" fill="#605E5E"/>
</svg>
